<?xml version="1.0" encoding="UTF-8" standalone="no"?>
<svg
   width="799.468"
   height="552.327"
   viewBox="0 0 799.468 552.327"
   role="img"
   artist="Katerina Limpitsouni"
   source="https://undraw.co/"
   version="1.1"
   id="svg56"
   sodipodi:docname="email.svg"
   inkscape:version="1.2.2 (b0a8486541, 2022-12-01)"
   xmlns:inkscape="http://www.inkscape.org/namespaces/inkscape"
   xmlns:sodipodi="http://sodipodi.sourceforge.net/DTD/sodipodi-0.dtd"
   xmlns="http://www.w3.org/2000/svg"
   xmlns:svg="http://www.w3.org/2000/svg">
  <defs
     id="defs60">
    <clipPath
       clipPathUnits="userSpaceOnUse"
       id="clipPath1677">
      <rect
         style="fill:#ac9393;stroke-width:0.992513"
         id="rect1679"
         width="740.74646"
         height="495.12936"
         x="581.60791"
         y="245.61877" />
    </clipPath>
    <clipPath
       clipPathUnits="userSpaceOnUse"
       id="clipPath923">
      <rect
         style="fill:#ac9393;stroke-width:0.992513"
         id="rect925"
         width="740.42932"
         height="490.09851"
         x="583.10406"
         y="248.51595" />
    </clipPath>
  </defs>
  <sodipodi:namedview
     id="namedview58"
     pagecolor="#ffffff"
     bordercolor="#000000"
     borderopacity="0.25"
     inkscape:showpageshadow="2"
     inkscape:pageopacity="0.0"
     inkscape:pagecheckerboard="0"
     inkscape:deskcolor="#d1d1d1"
     showgrid="false"
     inkscape:zoom="0.67852301"
     inkscape:cx="348.55119"
     inkscape:cy="224.75288"
     inkscape:window-width="1366"
     inkscape:window-height="699"
     inkscape:window-x="0"
     inkscape:window-y="32"
     inkscape:window-maximized="1"
     inkscape:current-layer="svg56" />
  <path
     d="m 1328.244,232.384 h -748.6 a 13.225,13.225 0 0 0 -13.2,13.223 v 501.007 a 13.219,13.219 0 0 0 13.2,13.2 h 748.6 a 13.219,13.219 0 0 0 13.2,-13.2 V 245.608 a 13.224,13.224 0 0 0 -13.193,-13.223 z"
     transform="matrix(1.0057732,0,0,1.0093167,-565.20708,-228.18191)"
     fill="#ffffff"
     id="path4"
     clip-path="url(#clipPath923)" />
  <g
     transform="matrix(1.0057732,0,0,1.0093167,-562.38588,-320.65147)"
     id="g32">
    <path
       d="M 348.018,257.437 201.871,154.7 54.232,256.48 199.669,317.894 Z"
       transform="translate(760.284,236.013)"
       fill="#ffffff"
       id="path6" />
    <path
       d="m 393.726,437.164 h 0.105 l 60.359,25.774 82.585,35.262 a 2.664,2.664 0 0 0 2.04,0.01 l 85.2,-35.348 61.842,-25.658 0.095,-0.042 h 0.105 a 3.685,3.685 0 0 1 3.68,3.68 v 159.84 a 3.684,3.684 0 0 1 -3.68,3.68 H 393.726 a 3.685,3.685 0 0 1 -3.68,-3.68 V 440.844 a 3.684,3.684 0 0 1 3.68,-3.68 z"
       transform="translate(421.354,55.235)"
       fill="#ffffff"
       id="path8" />
    <path
       d="m 393.2,447.5 a 0.524,0.524 0 0 0 0.3,-0.094 L 538.909,346.143 a 2.637,2.637 0 0 1 3.012,0.005 l 144.362,101.261 a 0.526,0.526 0 0 0 0.6,-0.861 L 542.525,345.287 a 3.692,3.692 0 0 0 -4.217,-0.007 L 392.9,446.547 a 0.526,0.526 0 0 0 0.3,0.957 z"
       transform="translate(421.618,45.945)"
       fill="#3f3d56"
       id="path10" />
    <path
       d="m 338.585,260.641 -137.761,-102.1 -138.805,109.364 131.708,78.079 71.506,-16.3 z"
       transform="translate(761.066,236.399)"
       fill="#f2f2f2"
       id="path12" />
    <path
       d="M 580.146,563.346 H 648.2 a 3.18,3.18 0 1 0 0.009,-6.359 h -68.063 a 3.18,3.18 0 0 0 -0.009,6.359 z"
       transform="translate(440.116,67.262)"
       fill="#6c63ff"
       id="path14" />
    <path
       d="m 619.8,550.923 h 24.417 a 3.18,3.18 0 1 0 0.009,-6.359 H 619.8 a 3.18,3.18 0 0 0 -0.009,6.359 z"
       transform="translate(444.097,66.015)"
       fill="#6c63ff"
       id="path16" />
    <path
       d="m 532.7,506.706 a 3.975,3.975 0 0 0 1.508,-0.3 l 84.961,-35.253 V 360.81 a 3.685,3.685 0 0 0 -3.68,-3.681 H 452.5 a 3.685,3.685 0 0 0 -3.68,3.68 v 110.426 l 0.16,0.068 82.169,35.09 a 4,4 0 0 0 1.554,0.313 z"
       transform="translate(427.253,47.201)"
       fill="#6c63ff"
       id="path18" />
    <path
       d="m 531.066,506.659 -82.488,-35.227 v -110.6 a 3.948,3.948 0 0 1 3.943,-3.943 h 162.992 a 3.948,3.948 0 0 1 3.943,3.943 v 110.525 l -85.124,35.321 a 4.275,4.275 0 0 1 -3.266,-0.019 z m 87.339,-145.825 a 2.9,2.9 0 0 0 -2.892,-2.892 H 452.521 a 2.9,2.9 0 0 0 -2.892,2.892 v 109.9 l 81.848,34.953 a 3.217,3.217 0 0 0 2.454,0.015 L 618.4,470.655 Z"
       transform="translate(427.229,47.177)"
       fill="#3f3d56"
       id="path20" />
    <path
       d="m 390.762,440.844 v 159.838 a 3.684,3.684 0 0 0 3.68,3.68 h 292.334 a 3.685,3.685 0 0 0 3.681,-3.68 V 440.844 a 3.685,3.685 0 0 0 -3.68,-3.68 h -0.105 l -0.094,0.042 -61.842,25.658 -85.2,35.348 a 2.664,2.664 0 0 1 -2.04,-0.01 l -82.584,-35.264 -60.359,-25.774 h -0.105 a 3.684,3.684 0 0 0 -3.686,3.68 z m 1.052,0 a 2.637,2.637 0 0 1 2.524,-2.629 l 60.57,25.863 82.169,35.091 a 3.744,3.744 0 0 0 2.86,0.016 L 624.734,464 686.876,438.216 a 2.635,2.635 0 0 1 2.529,2.629 v 159.837 a 2.63,2.63 0 0 1 -2.629,2.629 H 394.443 a 2.63,2.63 0 0 1 -2.629,-2.629 z"
       transform="translate(421.426,55.235)"
       fill="#3f3d56"
       id="path22" />
    <path
       d="m 465.512,395.382 h 57.836 a 4.2065,4.2065 0 0 0 0,-8.413 h -57.836 a 4.2065,4.2065 0 1 0 0,8.413 z"
       transform="translate(428.507,50.196)"
       fill="#ffffff"
       id="path24" />
    <path
       d="m 465.544,379.137 h 27.866 a 4.2065,4.2065 0 0 0 0,-8.413 h -27.866 a 4.2065,4.2065 0 0 0 0,8.413 z"
       transform="translate(428.51,48.565)"
       fill="#ffffff"
       id="path26" />
    <path
       d="m 487.3,433.608 h 88.331 a 4.2065,4.2065 0 0 0 0,-8.413 H 487.3 a 4.2065,4.2065 0 0 0 0,8.413 z"
       transform="translate(430.694,54.033)"
       fill="#ffffff"
       opacity="0.5"
       id="path28" />
    <path
       d="m 487.3,451.287 h 88.331 a 4.206,4.206 0 1 0 0,-8.412 H 487.3 a 4.2065,4.2065 0 0 0 0,8.413 z"
       transform="translate(430.694,55.808)"
       fill="#ffffff"
       opacity="0.5"
       id="path30" />
  </g>
  <g
     transform="matrix(1.0057732,0,0,1.0093167,-320.21984,-263.12042)"
     id="g38">
    <circle
       cx="39.938999"
       cy="39.938999"
       r="39.938999"
       transform="translate(680.926,671.884)"
       fill="#6c63ff"
       id="circle34" />
    <path
       d="m 556.177,73.934 a 1.543,1.543 0 0 0 -0.45,2.9 l 18.361,9.226 1,20.523 a 1.545,1.545 0 0 0 2.838,0.766 l 24.83,-38.272 a 1.546,1.546 0 0 0 -1.541,-2.369 l -45.047,7.208 z m 19.631,9.541 -14.415,-7.244 36.893,-5.91 -20.343,31.344 -0.793,-16.118 10.748,-7 a 1.237,1.237 0 1 0 -1.351,-2.072 l -10.748,7 z"
       transform="translate(139.947,630.394)"
       fill="#ffffff"
       fill-rule="evenodd"
       id="path36" />
  </g>
  <g
     transform="matrix(1.0057732,0,0,1.0093167,88.456994,389.52596)"
     id="g42">
    <path
       d="m 224.694,123.086 a 39.939,39.939 0 1 0 39.937,39.939 v 0 a 39.939,39.939 0 0 0 -39.939,-39.939 z m 0,11.981 a 11.981,11.981 0 1 1 -11.981,11.981 v 0 a 11.981,11.981 0 0 1 11.981,-11.981 z m 0,57.68 a 29.1,29.1 0 0 1 -23.963,-12.789 c 0.192,-7.988 15.976,-12.385 23.963,-12.385 7.987,0 23.771,4.4 23.963,12.385 a 29.142,29.142 0 0 1 -23.963,12.789 z"
       transform="translate(-74.569,-97.824)"
       fill="#6c63ff"
       id="path40" />
  </g>
  <g
     transform="matrix(1.0057732,0,0,1.0093167,-496.85171,-263.12042)"
     id="g52">
    <circle
       cx="39.938999"
       cy="39.938999"
       r="39.938999"
       transform="translate(1020.955,671.884)"
       fill="#6c63ff"
       id="circle44" />
    <g
       transform="translate(-140.988,64.501)"
       id="g50">
      <path
         d="M 545.017,221.925 V 195.34 a 15.041,15.041 0 0 0 -30.074,-0.662 h 3.31 a 11.747,11.747 0 0 1 11.721,-11.287 h 0.172 a 11.756,11.756 0 0 1 11.563,11.926 v 26.822 a 7.879,7.879 0 0 1 -7.867,7.774 h -0.1 a 7.882,7.882 0 0 1 -7.772,-7.985 l 0.018,-26.406 a 3.9640213,3.9640213 0 1 1 7.928,-0.026 v 7.672 a 1.655,1.655 0 1 0 3.31,0 v -7.7 a 7.2725107,7.2725107 0 1 0 -14.545,0.025 l -0.017,26.413 a 11.191,11.191 0 0 0 11.041,11.313 h 0.138 a 11.194,11.194 0 0 0 11.175,-11.051 c 0,-0.084 0,-0.168 -10e-4,-0.243 z"
         transform="translate(672.318,440.728)"
         fill="#ffffff"
         id="path46" />
      <circle
         cx="3.904"
         cy="3.904"
         r="3.904"
         transform="translate(1202.3,659.185)"
         fill="#ffffff"
         id="circle48" />
    </g>
  </g>
</svg>
