<?xml version="1.0" encoding="UTF-8" standalone="no"?>
<svg
   width="799.468"
   height="552.327"
   viewBox="0 0 799.468 552.327"
   role="img"
   artist="Katerina Limpitsouni"
   source="https://undraw.co/"
   version="1.1"
   id="svg124"
   sodipodi:docname="github_profile.svg"
   inkscape:version="1.2.2 (b0a8486541, 2022-12-01)"
   xmlns:inkscape="http://www.inkscape.org/namespaces/inkscape"
   xmlns:sodipodi="http://sodipodi.sourceforge.net/DTD/sodipodi-0.dtd"
   xmlns="http://www.w3.org/2000/svg"
   xmlns:svg="http://www.w3.org/2000/svg">
  <defs
     id="defs128" />
  <sodipodi:namedview
     id="namedview126"
     pagecolor="#ffffff"
     bordercolor="#000000"
     borderopacity="0.25"
     inkscape:showpageshadow="2"
     inkscape:pageopacity="0.0"
     inkscape:pagecheckerboard="0"
     inkscape:deskcolor="#d1d1d1"
     showgrid="false"
     inkscape:zoom="0.95957644"
     inkscape:cx="400.69763"
     inkscape:cy="109.94434"
     inkscape:window-width="1366"
     inkscape:window-height="699"
     inkscape:window-x="0"
     inkscape:window-y="32"
     inkscape:window-maximized="1"
     inkscape:current-layer="svg124" />
  <path
     d="m 763.533,3.164 h -748.6 a 13.225,13.225 0 0 0 -13.2,13.223 v 501.007 a 13.219,13.219 0 0 0 13.2,13.2 h 748.6 a 13.219,13.219 0 0 0 13.2,-13.2 V 16.388 A 13.224,13.224 0 0 0 763.54,3.165 Z"
     fill="#ffffff"
     id="path4" />
  <path
     d="m 138,125.163 a 72,72 0 1 1 -72,72 72,72 0 0 1 72,-72 z"
     fill="#6c63ff"
     id="path6" />
  <path
     d="m 74,316.163 h 112 a 8,8 0 0 1 0,16 H 74 a 8,8 0 0 1 0,-16 z"
     fill="#d6d6e3"
     id="path8" />
  <path
     d="m 74,340.163 h 48 a 8,8 0 0 1 0,16 H 74 a 8,8 0 0 1 0,-16 z"
     fill="#d6d6e3"
     id="path10" />
  <path
     d="m 68,387.163 h 140 a 2,2 0 0 1 2,2 v 18 a 2,2 0 0 1 -2,2 H 68 a 2,2 0 0 1 -2,-2 v -18 a 2,2 0 0 1 2,-2 z"
     fill="#d6d6e3"
     id="path12" />
  <path
     d="m 274,136.403 c -3.308,0 -6,1.668 -6,3.719 v 47.11 c 0,2.051 2.692,3.719 6,3.719 h 184 c 3.308,0 6,-1.668 6,-3.719 v -47.11 c 0,-2.051 -2.692,-3.719 -6,-3.719 H 274 m 0,-1.24 h 184 c 4.418,0 8,2.22 8,4.959 v 47.11 c 0,2.739 -3.582,4.959 -8,4.959 H 274 c -4.418,0 -8,-2.22 -8,-4.959 v -47.11 c 0,-2.739 3.582,-4.959 8,-4.959 z"
     fill="#d6d6e3"
     id="path14" />
  <path
     d="m 520,136.403 c -3.308,0 -6,1.668 -6,3.719 v 47.11 c 0,2.051 2.692,3.719 6,3.719 h 184 c 3.308,0 6,-1.668 6,-3.719 v -47.11 c 0,-2.051 -2.692,-3.719 -6,-3.719 H 520 m 0,-1.24 h 184 c 4.418,0 8,2.22 8,4.959 v 47.11 c 0,2.739 -3.582,4.959 -8,4.959 H 520 c -4.418,0 -8,-2.22 -8,-4.959 v -47.11 c 0,-2.739 3.582,-4.959 8,-4.959 z"
     fill="#d6d6e3"
     id="path16" />
  <g
     transform="translate(258.998,231.027)"
     id="g120">
    <g
       transform="translate(7.002,-1)"
       id="g118">
      <path
         d="m 579.549,259.135 h 22.125 a 3.1,3.1 0 0 1 3.081,3.08 v 22.133 a 3.086,3.086 0 0 1 -3.081,3.07 h -22.13 a 3.073,3.073 0 0 1 -3.073,-3.07 v -22.132 a 3.086,3.086 0 0 1 3.078,-3.081 z m 22.125,27.288 a 2.09,2.09 0 0 0 2.087,-2.079 v -22.13 a 2.1,2.1 0 0 0 -2.089,-2.087 h -22.119 a 2.091,2.091 0 0 0 -2.087,2.087 v 22.131 a 2.079,2.079 0 0 0 2.079,2.077 z"
         transform="translate(-576.471,-259.135)"
         fill="#d6d6e3"
         id="path18" />
      <path
         d="m 601.674,297.585 h -22.122 a 2.585,2.585 0 0 0 -2.583,2.587 V 322.3 a 2.576,2.576 0 0 0 2.583,2.571 h 22.121 a 2.582,2.582 0 0 0 2.583,-2.571 v -22.128 a 2.591,2.591 0 0 0 -2.584,-2.584 z"
         transform="translate(-576.474,-259.375)"
         fill="#d6d6e3"
         id="path20" />
      <path
         d="m 601.674,335.535 h -22.122 a 2.585,2.585 0 0 0 -2.583,2.584 v 22.122 a 2.578,2.578 0 0 0 2.583,2.584 h 22.121 a 2.585,2.585 0 0 0 2.584,-2.584 v -22.122 a 2.591,2.591 0 0 0 -2.583,-2.584 z"
         transform="translate(-576.474,-259.611)"
         fill="#d6d6e3"
         id="path22" />
      <path
         d="m 604.218,375.611 a 2.6,2.6 0 0 0 -2.544,-2.127 h -22.122 a 2.585,2.585 0 0 0 -2.583,2.584 v 22.121 a 2.578,2.578 0 0 0 2.583,2.584 h 22.121 a 2.585,2.585 0 0 0 2.584,-2.584 v -22.117 a 2.309,2.309 0 0 0 -0.04,-0.457 z"
         transform="translate(-576.474,-259.848)"
         fill="#d6d6e3"
         id="path24" />
      <path
         d="m 602.677,411.633 a 2.618,2.618 0 0 0 -1,-0.2 h -22.125 a 2.578,2.578 0 0 0 -2.583,2.584 v 22.123 a 2.571,2.571 0 0 0 2.583,2.584 h 22.121 a 2.586,2.586 0 0 0 2.584,-2.584 v -22.121 a 2.6,2.6 0 0 0 -1.58,-2.385 z"
         transform="translate(-576.474,-260.084)"
         fill="#d6d6e3"
         id="path26" />
      <path
         d="m 648.434,259.635 h -22.121 a 2.585,2.585 0 0 0 -2.584,2.584 v 22.131 a 2.576,2.576 0 0 0 2.584,2.571 h 22.121 a 2.583,2.583 0 0 0 2.584,-2.571 v -22.131 a 2.591,2.591 0 0 0 -2.584,-2.584 z"
         transform="translate(-576.766,-259.138)"
         fill="#d6d6e3"
         id="path28" />
      <path
         d="m 648.434,297.585 h -22.121 a 2.585,2.585 0 0 0 -2.584,2.587 V 322.3 a 2.576,2.576 0 0 0 2.584,2.571 h 22.121 a 2.583,2.583 0 0 0 2.584,-2.571 v -22.128 a 2.591,2.591 0 0 0 -2.584,-2.584 z"
         transform="translate(-576.766,-259.375)"
         fill="#6c63ff"
         id="path30" />
      <path
         d="m 648.434,335.535 h -22.121 a 2.585,2.585 0 0 0 -2.584,2.584 v 22.122 a 2.578,2.578 0 0 0 2.584,2.584 h 22.121 a 2.585,2.585 0 0 0 2.584,-2.584 v -22.122 a 2.591,2.591 0 0 0 -2.584,-2.584 z"
         transform="translate(-576.766,-259.611)"
         fill="#6c63ff"
         id="path32" />
      <path
         d="m 648.434,373.485 h -22.121 a 2.571,2.571 0 0 0 -2.444,1.768 2.461,2.461 0 0 0 -0.139,0.815 v 22.122 a 2.578,2.578 0 0 0 2.584,2.584 h 22.121 a 2.585,2.585 0 0 0 2.584,-2.584 v -22.118 a 2.592,2.592 0 0 0 -2.585,-2.587 z"
         transform="translate(-576.766,-259.848)"
         fill="#6c63ff"
         id="path34" />
      <path
         d="m 648.434,411.435 h -22.121 a 2.578,2.578 0 0 0 -2.583,2.584 v 22.122 a 2.578,2.578 0 0 0 2.584,2.584 h 22.121 a 2.585,2.585 0 0 0 2.584,-2.584 v -22.122 a 2.585,2.585 0 0 0 -2.585,-2.584 z"
         transform="translate(-576.766,-260.084)"
         fill="#d6d6e3"
         id="path36" />
      <path
         d="m 695.194,259.635 h -22.122 a 2.585,2.585 0 0 0 -2.584,2.584 v 22.131 a 2.576,2.576 0 0 0 2.584,2.571 h 22.121 a 2.582,2.582 0 0 0 2.583,-2.571 v -22.131 a 2.591,2.591 0 0 0 -2.584,-2.584 z"
         transform="translate(-577.057,-259.138)"
         fill="#6c63ff"
         id="path38" />
      <path
         d="m 695.194,297.585 h -22.122 a 2.585,2.585 0 0 0 -2.583,2.587 V 322.3 a 2.576,2.576 0 0 0 2.583,2.571 h 22.121 a 2.582,2.582 0 0 0 2.584,-2.571 v -22.128 a 2.591,2.591 0 0 0 -2.584,-2.584 z"
         transform="translate(-577.057,-259.375)"
         fill="#6c63ff"
         id="path40" />
      <path
         d="m 695.194,335.535 h -22.122 a 2.585,2.585 0 0 0 -2.584,2.584 v 22.122 a 2.578,2.578 0 0 0 2.584,2.584 h 22.121 a 2.585,2.585 0 0 0 2.584,-2.584 v -22.122 a 2.591,2.591 0 0 0 -2.582,-2.584 z"
         transform="translate(-577.057,-259.611)"
         fill="#d6d6e3"
         id="path42" />
      <path
         d="m 695.194,373.485 h -22.122 a 2.585,2.585 0 0 0 -2.584,2.584 v 22.121 a 2.578,2.578 0 0 0 2.584,2.584 h 22.121 a 2.585,2.585 0 0 0 2.584,-2.584 v -22.118 a 2.591,2.591 0 0 0 -2.582,-2.587 z"
         transform="translate(-577.057,-259.848)"
         fill="#6c63ff"
         id="path44" />
      <path
         d="m 695.194,411.435 h -22.122 a 2.578,2.578 0 0 0 -2.583,2.584 v 22.122 a 2.578,2.578 0 0 0 2.584,2.584 h 22.121 a 2.586,2.586 0 0 0 2.584,-2.584 v -22.122 a 2.584,2.584 0 0 0 -2.584,-2.584 z"
         transform="translate(-577.057,-260.084)"
         fill="#6c63ff"
         id="path46" />
      <path
         d="m 741.954,259.635 h -22.121 a 2.585,2.585 0 0 0 -2.584,2.584 v 22.131 a 2.577,2.577 0 0 0 2.584,2.571 h 22.121 a 2.582,2.582 0 0 0 2.584,-2.571 v -22.131 a 2.591,2.591 0 0 0 -2.584,-2.584 z"
         transform="translate(-577.349,-259.138)"
         fill="#6c63ff"
         id="path48" />
      <path
         d="m 719.83,297.085 h 22.121 a 3.1,3.1 0 0 1 3.081,3.08 V 322.3 a 3.086,3.086 0 0 1 -3.08,3.071 h -22.13 a 3.073,3.073 0 0 1 -3.073,-3.07 v -22.135 a 3.086,3.086 0 0 1 3.081,-3.081 z m 22.121,27.288 a 2.09,2.09 0 0 0 2.087,-2.079 v -22.13 a 2.1,2.1 0 0 0 -2.089,-2.087 H 719.83 a 2.091,2.091 0 0 0 -2.087,2.087 V 322.3 a 2.079,2.079 0 0 0 2.079,2.077 z"
         transform="translate(-577.346,-259.371)"
         fill="#d6d6e3"
         id="path50" />
      <path
         d="m 719.83,335.035 h 22.121 a 3.1,3.1 0 0 1 3.081,3.08 v 22.122 a 3.086,3.086 0 0 1 -3.081,3.081 h -22.127 a 3.055,3.055 0 0 1 -2.174,-0.9 3.1,3.1 0 0 1 -0.9,-2.181 v -22.12 a 3.086,3.086 0 0 1 3.081,-3.081 z m 22.121,27.288 a 2.091,2.091 0 0 0 2.087,-2.087 v -22.12 a 2.1,2.1 0 0 0 -2.089,-2.087 h -22.12 a 2.091,2.091 0 0 0 -2.087,2.088 v 22.121 a 2.1,2.1 0 0 0 0.609,1.477 2.069,2.069 0 0 0 1.472,0.609 z"
         transform="translate(-577.346,-259.608)"
         fill="#d6d6e3"
         id="path52" />
      <path
         d="m 741.954,373.485 h -22.121 a 2.585,2.585 0 0 0 -2.584,2.584 v 22.121 a 2.578,2.578 0 0 0 2.584,2.584 h 22.121 a 2.585,2.585 0 0 0 2.584,-2.584 v -22.118 a 2.591,2.591 0 0 0 -2.584,-2.587 z"
         transform="translate(-577.349,-259.848)"
         fill="#d6d6e3"
         id="path54" />
      <path
         d="m 741.954,411.435 h -22.121 a 2.578,2.578 0 0 0 -2.583,2.584 v 22.122 a 2.579,2.579 0 0 0 2.584,2.584 h 22.121 a 2.585,2.585 0 0 0 2.584,-2.584 v -22.122 a 2.585,2.585 0 0 0 -2.585,-2.584 z"
         transform="translate(-577.349,-260.084)"
         fill="#6c63ff"
         id="path56" />
      <path
         d="m 766.578,259.135 h 22.133 a 3.1,3.1 0 0 1 3.081,3.08 v 22.133 a 3.086,3.086 0 0 1 -3.08,3.071 h -22.133 a 3.075,3.075 0 0 1 -3.07,-3.071 v -22.132 a 3.085,3.085 0 0 1 3.069,-3.081 z m 22.133,27.288 a 2.09,2.09 0 0 0 2.087,-2.079 v -22.13 a 2.1,2.1 0 0 0 -2.089,-2.087 h -22.128 a 2.09,2.09 0 0 0 -2.079,2.087 v 22.131 a 2.08,2.08 0 0 0 2.077,2.077 z"
         transform="translate(-577.638,-259.135)"
         fill="#d6d6e3"
         id="path58" />
      <path
         d="m 766.578,297.085 h 22.133 a 3.1,3.1 0 0 1 3.081,3.08 V 322.3 a 3.086,3.086 0 0 1 -3.08,3.071 h -22.133 a 3.074,3.074 0 0 1 -3.07,-3.071 v -22.134 a 3.085,3.085 0 0 1 3.069,-3.081 z m 0,27.288 h 22.132 a 2.09,2.09 0 0 0 2.087,-2.079 v -22.13 a 2.1,2.1 0 0 0 -2.089,-2.087 h -22.127 a 2.09,2.09 0 0 0 -2.079,2.087 V 322.3 a 2.079,2.079 0 0 0 2.077,2.078 z"
         transform="translate(-577.638,-259.371)"
         fill="#d6d6e3"
         id="path60" />
      <path
         d="m 766.578,335.035 h 22.133 a 3.1,3.1 0 0 1 3.081,3.08 v 22.122 a 3.086,3.086 0 0 1 -3.081,3.081 H 766.58 a 3.073,3.073 0 0 1 -3.071,-3.082 v -22.12 a 3.085,3.085 0 0 1 3.069,-3.081 z m 0,27.288 h 22.131 a 2.091,2.091 0 0 0 2.087,-2.087 v -22.12 a 2.1,2.1 0 0 0 -2.089,-2.087 h -22.126 a 2.09,2.09 0 0 0 -2.079,2.087 v 22.121 a 2.08,2.08 0 0 0 2.077,2.087 z"
         transform="translate(-577.638,-259.608)"
         fill="#d6d6e3"
         id="path62" />
      <path
         d="m 788.714,373.485 h -22.131 a 2.583,2.583 0 0 0 -2.571,2.584 v 22.121 a 2.576,2.576 0 0 0 2.571,2.584 h 22.131 a 2.585,2.585 0 0 0 2.584,-2.584 v -22.118 a 2.592,2.592 0 0 0 -2.584,-2.584 z"
         transform="translate(-577.64,-259.848)"
         fill="#6c63ff"
         id="path64" />
      <path
         d="m 788.714,411.435 h -22.131 a 2.577,2.577 0 0 0 -2.571,2.584 v 22.122 a 2.576,2.576 0 0 0 2.571,2.584 h 22.131 a 2.585,2.585 0 0 0 2.584,-2.584 v -22.122 a 2.585,2.585 0 0 0 -2.584,-2.584 z"
         transform="translate(-577.64,-260.084)"
         fill="#d6d6e3"
         id="path66" />
      <path
         d="m 813.338,259.135 h 22.136 a 3.1,3.1 0 0 1 3.081,3.08 v 22.133 a 3.086,3.086 0 0 1 -3.08,3.071 h -22.136 a 3.074,3.074 0 0 1 -3.07,-3.071 v -22.132 a 3.085,3.085 0 0 1 3.069,-3.081 z m 22.136,27.288 a 2.09,2.09 0 0 0 2.087,-2.079 v -22.13 a 2.1,2.1 0 0 0 -2.089,-2.087 h -22.131 a 2.09,2.09 0 0 0 -2.079,2.087 v 22.131 a 2.08,2.08 0 0 0 2.077,2.077 z"
         transform="translate(-577.929,-259.135)"
         fill="#d6d6e3"
         id="path68" />
      <path
         d="m 813.338,297.085 h 22.136 a 3.1,3.1 0 0 1 3.081,3.08 V 322.3 a 3.086,3.086 0 0 1 -3.08,3.071 h -22.136 a 3.075,3.075 0 0 1 -3.07,-3.071 v -22.134 a 3.085,3.085 0 0 1 3.069,-3.081 z m 0,27.288 h 22.136 a 2.09,2.09 0 0 0 2.087,-2.079 v -22.13 a 2.1,2.1 0 0 0 -2.089,-2.087 h -22.131 a 2.09,2.09 0 0 0 -2.079,2.087 V 322.3 a 2.08,2.08 0 0 0 2.077,2.078 z"
         transform="translate(-577.929,-259.371)"
         fill="#d6d6e3"
         id="path70" />
      <path
         d="m 835.474,335.535 h -22.131 a 2.583,2.583 0 0 0 -2.571,2.584 v 22.122 a 2.576,2.576 0 0 0 2.571,2.584 h 22.131 a 2.585,2.585 0 0 0 2.584,-2.584 v -22.122 a 2.591,2.591 0 0 0 -2.584,-2.584 z"
         transform="translate(-577.932,-259.611)"
         fill="#6c63ff"
         id="path72" />
      <path
         d="m 835.474,373.485 h -22.131 a 2.584,2.584 0 0 0 -2.571,2.584 v 22.121 a 2.576,2.576 0 0 0 2.571,2.584 h 22.131 a 2.585,2.585 0 0 0 2.584,-2.584 v -22.118 a 2.591,2.591 0 0 0 -2.584,-2.584 z"
         transform="translate(-577.932,-259.848)"
         fill="#d6d6e3"
         id="path74" />
      <path
         d="m 813.339,410.935 h 22.135 a 3.086,3.086 0 0 1 3.081,3.081 v 22.121 a 3.086,3.086 0 0 1 -3.081,3.081 H 813.34 a 3.073,3.073 0 0 1 -3.071,-3.083 v -22.119 a 3.073,3.073 0 0 1 3.07,-3.081 z m 22.135,27.288 a 2.091,2.091 0 0 0 2.087,-2.088 v -22.12 a 2.091,2.091 0 0 0 -2.088,-2.087 h -22.13 a 2.08,2.08 0 0 0 -2.078,2.086 v 22.122 a 2.079,2.079 0 0 0 2.077,2.087 z"
         transform="translate(-577.929,-260.081)"
         fill="#d6d6e3"
         id="path76" />
      <path
         d="M 882.234,259.635 H 860.1 a 2.583,2.583 0 0 0 -2.571,2.584 v 22.131 a 2.571,2.571 0 0 0 2.571,2.571 h 22.132 a 2.582,2.582 0 0 0 2.584,-2.571 v -22.131 a 2.591,2.591 0 0 0 -2.582,-2.584 z"
         transform="translate(-578.224,-259.138)"
         fill="#6c63ff"
         id="path78" />
      <path
         d="M 882.234,297.585 H 860.1 a 2.583,2.583 0 0 0 -2.571,2.584 V 322.3 a 2.571,2.571 0 0 0 2.571,2.571 h 22.132 a 2.582,2.582 0 0 0 2.584,-2.571 v -22.128 a 2.591,2.591 0 0 0 -2.585,-2.587 z"
         transform="translate(-578.224,-259.375)"
         fill="#6c63ff"
         id="path80" />
      <path
         d="M 882.234,335.535 H 860.1 a 2.583,2.583 0 0 0 -2.571,2.584 v 22.122 a 2.576,2.576 0 0 0 2.571,2.584 h 22.131 a 2.585,2.585 0 0 0 2.584,-2.584 v -22.122 a 2.591,2.591 0 0 0 -2.581,-2.584 z"
         transform="translate(-578.224,-259.611)"
         fill="#d6d6e3"
         id="path82" />
      <path
         d="m 860.1,372.985 h 22.133 a 3.1,3.1 0 0 1 3.081,3.08 v 22.122 a 3.086,3.086 0 0 1 -3.081,3.081 H 860.1 a 3.073,3.073 0 0 1 -3.071,-3.082 v -22.12 a 3.086,3.086 0 0 1 3.065,-3.081 z m 22.133,27.288 a 2.091,2.091 0 0 0 2.087,-2.087 v -22.12 a 2.1,2.1 0 0 0 -2.089,-2.087 H 860.1 a 2.09,2.09 0 0 0 -2.079,2.087 v 22.121 a 2.08,2.08 0 0 0 2.078,2.087 z"
         transform="translate(-578.221,-259.845)"
         fill="#d6d6e3"
         id="path84" />
      <path
         d="M 882.234,411.435 H 860.1 a 2.576,2.576 0 0 0 -2.571,2.584 v 22.122 a 2.576,2.576 0 0 0 2.571,2.584 h 22.131 a 2.585,2.585 0 0 0 2.584,-2.584 v -22.122 a 2.585,2.585 0 0 0 -2.581,-2.584 z"
         transform="translate(-578.224,-260.084)"
         fill="#6c63ff"
         id="path86" />
      <path
         d="m 928.994,259.635 h -22.131 a 2.583,2.583 0 0 0 -2.571,2.584 v 22.131 a 2.571,2.571 0 0 0 2.571,2.571 h 22.132 a 2.582,2.582 0 0 0 2.584,-2.571 v -22.131 a 2.591,2.591 0 0 0 -2.585,-2.584 z"
         transform="translate(-578.515,-259.138)"
         fill="#6c63ff"
         id="path88" />
      <path
         d="m 928.994,297.585 h -22.131 a 2.583,2.583 0 0 0 -2.571,2.584 V 322.3 a 2.571,2.571 0 0 0 2.571,2.571 h 22.132 a 2.582,2.582 0 0 0 2.584,-2.571 v -22.128 a 2.591,2.591 0 0 0 -2.585,-2.587 z"
         transform="translate(-578.515,-259.375)"
         fill="#6c63ff"
         id="path90" />
      <path
         d="m 928.994,335.535 h -22.131 a 2.583,2.583 0 0 0 -2.571,2.584 v 22.122 a 2.576,2.576 0 0 0 2.571,2.584 h 22.131 a 2.585,2.585 0 0 0 2.584,-2.584 v -22.122 a 2.591,2.591 0 0 0 -2.584,-2.584 z"
         transform="translate(-578.515,-259.611)"
         fill="#d6d6e3"
         id="path92" />
      <path
         d="m 928.994,373.485 h -22.131 a 2.583,2.583 0 0 0 -2.571,2.584 v 22.121 a 2.576,2.576 0 0 0 2.571,2.584 h 22.131 a 2.585,2.585 0 0 0 2.584,-2.584 v -22.118 a 2.591,2.591 0 0 0 -2.584,-2.584 z"
         transform="translate(-578.515,-259.848)"
         fill="#6c63ff"
         id="path94" />
      <path
         d="m 928.994,411.435 h -22.131 a 2.576,2.576 0 0 0 -2.571,2.584 v 22.122 a 2.576,2.576 0 0 0 2.571,2.584 h 22.131 a 2.585,2.585 0 0 0 2.584,-2.584 v -22.122 a 2.585,2.585 0 0 0 -2.584,-2.584 z"
         transform="translate(-578.515,-260.084)"
         fill="#6c63ff"
         id="path96" />
      <path
         d="m 975.754,259.635 h -22.131 a 2.583,2.583 0 0 0 -2.571,2.584 v 22.131 a 2.571,2.571 0 0 0 2.571,2.571 h 22.132 a 2.582,2.582 0 0 0 2.583,-2.571 v -22.131 a 2.591,2.591 0 0 0 -2.584,-2.584 z"
         transform="translate(-578.807,-259.138)"
         fill="#d6d6e3"
         id="path98" />
      <path
         d="m 975.754,297.585 h -22.131 a 2.583,2.583 0 0 0 -2.571,2.584 V 322.3 a 2.571,2.571 0 0 0 2.571,2.571 h 22.132 a 2.583,2.583 0 0 0 2.583,-2.571 v -22.128 a 2.591,2.591 0 0 0 -2.585,-2.587 z"
         transform="translate(-578.807,-259.375)"
         fill="#6c63ff"
         id="path100" />
      <path
         d="m 975.754,335.535 h -22.131 a 2.583,2.583 0 0 0 -2.571,2.584 v 22.122 a 2.576,2.576 0 0 0 2.571,2.584 h 22.131 a 2.585,2.585 0 0 0 2.584,-2.584 v -22.122 a 2.591,2.591 0 0 0 -2.583,-2.584 z"
         transform="translate(-578.807,-259.611)"
         fill="#6c63ff"
         id="path102" />
      <path
         d="m 975.754,373.485 h -22.131 a 2.583,2.583 0 0 0 -2.571,2.584 v 22.121 a 2.576,2.576 0 0 0 2.571,2.584 h 22.131 a 2.585,2.585 0 0 0 2.584,-2.584 v -22.118 a 2.591,2.591 0 0 0 -2.583,-2.584 z"
         transform="translate(-578.807,-259.848)"
         fill="#6c63ff"
         id="path104" />
      <path
         d="m 975.754,411.435 h -22.131 a 2.577,2.577 0 0 0 -2.571,2.584 v 22.122 a 2.576,2.576 0 0 0 2.571,2.584 h 22.131 a 2.585,2.585 0 0 0 2.584,-2.584 v -22.122 a 2.585,2.585 0 0 0 -2.584,-2.584 z"
         transform="translate(-578.807,-260.084)"
         fill="#d6d6e3"
         id="path106" />
      <path
         d="m 1022.514,259.635 h -22.131 a 2.583,2.583 0 0 0 -2.571,2.584 v 22.131 a 2.571,2.571 0 0 0 2.571,2.571 h 22.132 a 2.582,2.582 0 0 0 2.583,-2.571 v -22.131 a 2.591,2.591 0 0 0 -2.584,-2.584 z"
         transform="translate(-579.098,-259.138)"
         fill="#d6d6e3"
         id="path108" />
      <path
         d="m 1022.514,297.585 h -22.131 a 2.582,2.582 0 0 0 -2.571,2.584 V 322.3 a 2.571,2.571 0 0 0 2.571,2.571 h 22.132 a 2.582,2.582 0 0 0 2.583,-2.571 v -22.128 a 2.591,2.591 0 0 0 -2.585,-2.587 z"
         transform="translate(-579.098,-259.375)"
         fill="#d6d6e3"
         id="path110" />
      <path
         d="m 1022.514,335.535 h -22.131 a 2.583,2.583 0 0 0 -2.571,2.584 v 22.122 a 2.576,2.576 0 0 0 2.571,2.584 h 22.131 a 2.585,2.585 0 0 0 2.584,-2.584 v -22.122 a 2.591,2.591 0 0 0 -2.584,-2.584 z"
         transform="translate(-579.098,-259.611)"
         fill="#6c63ff"
         id="path112" />
      <path
         d="m 1022.514,373.485 h -22.131 a 2.584,2.584 0 0 0 -2.571,2.584 v 22.121 a 2.576,2.576 0 0 0 2.571,2.584 h 22.131 a 2.585,2.585 0 0 0 2.584,-2.584 v -22.118 a 2.591,2.591 0 0 0 -2.584,-2.584 z"
         transform="translate(-579.098,-259.848)"
         fill="#d6d6e3"
         id="path114" />
      <path
         d="m 1022.514,411.435 h -22.131 a 2.576,2.576 0 0 0 -2.571,2.584 v 22.122 a 2.577,2.577 0 0 0 2.571,2.584 h 22.131 a 2.585,2.585 0 0 0 2.584,-2.584 v -22.122 a 2.585,2.585 0 0 0 -2.584,-2.584 z"
         transform="translate(-579.098,-260.084)"
         fill="#d6d6e3"
         id="path116" />
    </g>
  </g>
</svg>
